# xmcd
#
# Track frame offsets: 
#        150
#        16557
#        35800
#        50442
#        62260
#        81915
#        98530
#        114447
#        132760
#        145765
#        159502
#        178600
#        193310
#        210855
#
# Disc length: 3058 seconds
#
# Revision: 0
# Processed by: cddbd v1.5.2PL0 Copyright (c) Steve Scherf et al.
# Submitted via: ExactAudioCopy v0.95b2
#
DISCID=ad0bf00e
DTITLE=Sonja Wood - I'm Still Havin' Fun
DYEAR=1997
DGENRE=Country
TTITLE0=Too Close For Comfort
TTITLE1=Eddie Brown (The Newsman)
TTITLE2=More Time
TTITLE3=The Bluenose II
TTITLE4=State Of Confusion
TTITLE5=Big Brown Lyin' Eyes
TTITLE6=Long Black Train
TTITLE7=Halfway River
TTITLE8=Webber
TTITLE9=Annie's Got The Antidote
TTITLE10=Diamond In The Rough
TTITLE11=Five Outlaws
TTITLE12=Murphy's Law
TTITLE13=Sweet Denise
EXTD=
EXTT0=
EXTT1=
EXTT2=
EXTT3=
EXTT4=
EXTT5=
EXTT6=
EXTT7=
EXTT8=
EXTT9=
EXTT10=
EXTT11=
EXTT12=
EXTT13=
PLAYORDER=
